<!DOCTYPE svg PUBLIC "-//W3C//DTD SVG 1.1//EN" "http://www.w3.org/Graphics/SVG/1.1/DTD/svg11.dtd">
<!-- Uploaded to: SVG Repo, www.svgrepo.com, Transformed by: SVG Repo Mixer Tools -->
<svg fill="#ffffff" version="1.1" id="Capa_1" xmlns="http://www.w3.org/2000/svg" xmlns:xlink="http://www.w3.org/1999/xlink" viewBox="0 0 421.946 421.946" xml:space="preserve" width="800px" height="800px" stroke="#ffffff">
<g id="SVGRepo_bgCarrier" stroke-width="0"/>
<g id="SVGRepo_tracerCarrier" stroke-linecap="round" stroke-linejoin="round"/>
<g id="SVGRepo_iconCarrier"> <g> <g> <path d="M238.085,59.926c-0.819-0.167-1.656-0.3-2.513-0.396C236.429,59.626,237.266,59.759,238.085,59.926z"/> <path d="M240.49,60.531c-0.776-0.234-1.571-0.436-2.385-0.602C238.919,60.096,239.714,60.297,240.49,60.531z"/> <path d="M250.745,66.595c0.536,0.528,1.052,1.083,1.545,1.664C251.797,67.678,251.281,67.124,250.745,66.595z"/> <path d="M163.89,79.146c0.133-0.438,0.272-0.868,0.42-1.293c-0.001,0-0.001,0-0.001,0.001 C164.162,78.277,164.022,78.709,163.89,79.146z"/> <path d="M235.564,59.529c-0.859-0.097-1.736-0.158-2.632-0.183C233.828,59.371,234.705,59.433,235.564,59.529z"/> <path d="M246.979,63.547c-0.638-0.419-1.297-0.808-1.977-1.167C245.683,62.738,246.341,63.128,246.979,63.547z"/> <path d="M242.777,61.34c-0.73-0.299-1.482-0.564-2.252-0.799C241.295,60.775,242.046,61.042,242.777,61.34z"/> <path d="M248.888,64.937c-0.591-0.476-1.202-0.922-1.834-1.34C247.686,64.015,248.297,64.461,248.888,64.937z"/> <rect x="260.996" y="60.319" width="0" height="0.004"/> <path d="M250.658,66.508c-0.541-0.529-1.105-1.03-1.689-1.505C249.553,65.478,250.116,65.979,250.658,66.508z"/> <path d="M244.943,62.348c-0.686-0.36-1.393-0.69-2.117-0.988C243.552,61.657,244.257,61.987,244.943,62.348z"/> <path d="M158.586,62.615c0.002-0.002,0.003-0.004,0.005-0.006c-0.136,0.143-0.271,0.285-0.404,0.43 c0.002-0.002,0.003-0.004,0.005-0.005C158.322,62.893,158.453,62.754,158.586,62.615z"/> <path d="M160.534,60.693c0.004-0.004,0.008-0.007,0.012-0.011c-0.049,0.046-0.101,0.088-0.15,0.134 c0.001-0.001,0.002-0.002,0.003-0.003C160.443,60.772,160.49,60.734,160.534,60.693z"/> <path d="M175.219,51.804c-0.084,0.03-0.164,0.067-0.247,0.098l0,0C175.055,51.871,175.135,51.833,175.219,51.804z"/> <path d="M154.912,67.018c0.002-0.002,0.004-0.005,0.006-0.007c-0.112,0.153-0.226,0.307-0.335,0.463 c0.001-0.002,0.002-0.004,0.003-0.006C154.693,67.316,154.804,67.168,154.912,67.018z"/> <path d="M156.501,64.953c0.001-0.001,0.003-0.002,0.004-0.004c-0.044,0.053-0.084,0.107-0.127,0.159 c0.004-0.004,0.008-0.009,0.011-0.014C156.427,65.049,156.463,65,156.501,64.953z"/> <path d="M162.792,58.753c0.001-0.001,0.003-0.002,0.005-0.004c-0.148,0.119-0.294,0.24-0.439,0.361 c0.002-0.002,0.004-0.004,0.006-0.006C162.506,58.987,162.647,58.869,162.792,58.753z"/> <path d="M170.153,53.996c0-0.001,0.001-0.001,0.002-0.001c-0.157,0.08-0.315,0.157-0.472,0.239c0.001,0,0.001,0,0.002,0 C169.84,54.152,169.997,54.075,170.153,53.996z"/> <path d="M165.15,56.992c0.002-0.002,0.004-0.003,0.006-0.005c-0.115,0.081-0.233,0.157-0.348,0.239 c0.001-0.001,0.001-0.001,0.002-0.001C164.923,57.146,165.038,57.07,165.15,56.992z"/> <path d="M172.568,52.85c0,0,0,0,0.001,0c-0.099,0.042-0.193,0.089-0.291,0.132c0.001,0,0.002-0.001,0.003-0.001 C172.377,52.938,172.472,52.892,172.568,52.85z"/> <path d="M167.472,55.481c0,0,0.001-0.001,0.002-0.001c-0.14,0.084-0.275,0.172-0.413,0.257c0.001,0,0.003-0.001,0.004-0.002 C167.2,55.651,167.334,55.564,167.472,55.481z"/> <path d="M259.379,85.117c-0.138-0.955-0.305-1.888-0.499-2.799C259.074,83.229,259.241,84.162,259.379,85.117z"/> <path d="M270.88,73.409c0.087,0.177,0.175,0.354,0.26,0.533C271.055,73.763,270.967,73.586,270.88,73.409z"/> <path d="M270.19,72.057c0.05,0.093,0.102,0.185,0.151,0.278C270.292,72.241,270.24,72.149,270.19,72.057z"/> <path d="M264.661,64.042c0.007,0.008,0.014,0.016,0.021,0.023C264.675,64.058,264.668,64.05,264.661,64.042z"/> <path d="M271.582,74.917c0.098,0.224,0.196,0.446,0.291,0.671C271.778,75.363,271.68,75.141,271.582,74.917z"/> <path d="M272.245,76.505c0.101,0.257,0.199,0.515,0.296,0.773C272.444,77.02,272.346,76.762,272.245,76.505z"/> <path d="M263.538,62.805c0.01,0.01,0.019,0.02,0.028,0.029C263.558,62.824,263.548,62.814,263.538,62.805z"/> <path d="M258.173,57.992c0.002,0.001,0.004,0.002,0.005,0.003C258.177,57.994,258.175,57.993,258.173,57.992z"/> <path d="M272.853,78.147c0.1,0.287,0.195,0.576,0.288,0.866C273.048,78.724,272.953,78.435,272.853,78.147z"/> <path d="M259.608,59.126c0.002,0.001,0.003,0.002,0.004,0.004C259.611,59.128,259.61,59.127,259.608,59.126z"/> <path d="M274.293,83.324c0.125,0.594,0.239,1.19,0.339,1.793C274.532,84.515,274.418,83.918,274.293,83.324z"/> <path d="M273.401,79.835c0.097,0.321,0.186,0.646,0.275,0.971C273.587,80.481,273.498,80.156,273.401,79.835z"/> <path d="M256.297,74.535c-0.345-0.731-0.716-1.438-1.107-2.123C255.581,73.097,255.952,73.804,256.297,74.535z"/> <path d="M258.178,79.526c-0.243-0.835-0.516-1.647-0.81-2.438C257.663,77.879,257.935,78.692,258.178,79.526z"/> <path d="M255.114,72.277c-0.395-0.682-0.813-1.337-1.253-1.97C254.302,70.94,254.72,71.597,255.114,72.277z"/> <path d="M257.32,76.953c-0.295-0.782-0.616-1.54-0.96-2.276C256.704,75.413,257.025,76.171,257.32,76.953z"/> <path d="M273.882,81.562c0.096,0.376,0.183,0.756,0.268,1.136C274.064,82.317,273.978,81.938,273.882,81.562z"/> <path d="M253.776,70.183c-0.443-0.631-0.91-1.236-1.398-1.817C252.866,68.946,253.333,69.552,253.776,70.183z"/> <path d="M258.866,82.25c-0.191-0.894-0.412-1.763-0.657-2.612C258.454,80.486,258.675,81.356,258.866,82.25z"/> <path d="M153.181,69.578c0-0.001,0.001-0.003,0.002-0.004c-0.076,0.122-0.148,0.247-0.222,0.37 c0.001-0.003,0.003-0.006,0.005-0.009C153.038,69.817,153.106,69.696,153.181,69.578z"/> <path d="M150.484,74.641c0.001-0.002,0.001-0.003,0.002-0.004c-0.074,0.165-0.145,0.332-0.217,0.498 c0.001-0.002,0.002-0.003,0.002-0.005C150.343,74.967,150.411,74.803,150.484,74.641z"/> <polygon points="206.304,194.641 206.469,194.698 210.535,182.323 "/> <path d="M148.473,80.087c0,0,0-0.001,0.001-0.001c-0.056,0.189-0.108,0.379-0.162,0.569c0-0.001,0.001-0.001,0.001-0.001 C148.365,80.465,148.418,80.275,148.473,80.087z"/> <path d="M149.39,77.318c0.001-0.002,0.002-0.005,0.002-0.007c-0.038,0.104-0.081,0.207-0.118,0.311v-0.001 C149.311,77.519,149.352,77.42,149.39,77.318z"/> <path d="M151.827,71.925c0.001-0.003,0.003-0.006,0.004-0.009c-0.078,0.146-0.159,0.29-0.236,0.437 c0.001-0.001,0.001-0.003,0.002-0.004C151.672,72.206,151.751,72.066,151.827,71.925z"/> <path d="M394.228,103.417c0.983,0.582,1.928,1.222,2.828,1.915C396.156,104.639,395.212,103.998,394.228,103.417z"/> <path d="M397.185,105.433c0.423,0.33,0.838,0.672,1.241,1.025C398.021,106.104,397.608,105.763,397.185,105.433z"/> <path d="M380.107,99.556c0.576,0,1.147,0.024,1.716,0.058C381.255,99.579,380.684,99.556,380.107,99.556z"/> <path d="M384.059,99.841c1.117,0.159,2.213,0.385,3.283,0.674C386.271,100.227,385.176,100,384.059,99.841z"/> <path d="M389.38,101.149c1.059,0.375,2.088,0.813,3.084,1.309C391.468,101.962,390.438,101.524,389.38,101.149z"/> <path d="M401.02,109.049c0.383,0.437,0.753,0.885,1.109,1.344C401.772,109.934,401.402,109.485,401.02,109.049z"/> <path d="M387.755,100.632c0.42,0.121,0.837,0.251,1.249,0.39C388.592,100.883,388.176,100.753,387.755,100.632z"/> <path d="M392.737,102.598c0.428,0.22,0.85,0.448,1.264,0.689C393.587,103.046,393.165,102.816,392.737,102.598z"/> <path d="M382.32,99.651c0.423,0.033,0.842,0.076,1.259,0.128C383.162,99.728,382.743,99.685,382.32,99.651z"/> <path d="M402.14,110.407c0.726,0.938,1.392,1.925,1.995,2.953C403.531,112.332,402.865,111.346,402.14,110.407z"/> <path d="M400.988,109.012c-0.773-0.876-1.6-1.704-2.475-2.478C399.389,107.309,400.216,108.136,400.988,109.012z"/> <path d="M164.811,57.225c-0.001,0-0.001,0-0.002,0.001c-0.687,0.487-1.356,0.997-2.012,1.523 c-0.002,0.002-0.004,0.003-0.005,0.004C163.45,58.225,164.122,57.714,164.811,57.225z"/> <path d="M263.566,62.834c-0.01-0.01-0.019-0.02-0.028-0.029c-0.375-0.398-0.758-0.789-1.148-1.173 c0.424,0.417,0.838,0.844,1.245,1.277C263.611,62.885,263.59,62.858,263.566,62.834z"/> <path d="M158.191,63.034c-0.002,0.001-0.003,0.003-0.005,0.005c-0.577,0.622-1.142,1.255-1.682,1.91 c-0.001,0.002-0.003,0.003-0.004,0.004C157.044,64.295,157.611,63.659,158.191,63.034z"/> <path d="M156.389,65.095c-0.003,0.005-0.007,0.01-0.011,0.014c-0.505,0.619-0.989,1.255-1.46,1.902 c-0.002,0.002-0.004,0.005-0.006,0.007C155.388,66.363,155.878,65.721,156.389,65.095z"/> <path d="M162.363,59.104c-0.002,0.002-0.004,0.004-0.006,0.006c-0.618,0.509-1.224,1.03-1.812,1.572 c-0.004,0.004-0.008,0.007-0.012,0.011C161.128,60.146,161.74,59.618,162.363,59.104z"/> <path d="M160.399,60.813c-0.001,0.001-0.002,0.002-0.003,0.003c-0.621,0.578-1.22,1.18-1.806,1.793 c-0.002,0.002-0.003,0.004-0.005,0.006C159.174,61.999,159.775,61.394,160.399,60.813z"/> <path d="M152.966,69.936c-0.002,0.003-0.004,0.006-0.005,0.009c-0.394,0.646-0.77,1.304-1.13,1.972 c-0.001,0.003-0.003,0.006-0.004,0.009C152.189,71.251,152.569,70.587,152.966,69.936z"/> <path d="M149.273,77.621L149.273,77.621c-0.293,0.811-0.556,1.634-0.8,2.465c-0.001,0-0.001,0.001-0.001,0.001 C148.717,79.255,148.981,78.432,149.273,77.621z"/> <path d="M148.311,80.655c-0.236,0.85-0.457,1.706-0.642,2.576c0.184-0.87,0.405-1.728,0.643-2.577 C148.313,80.654,148.311,80.654,148.311,80.655z"/> <path d="M151.597,72.349c-0.001,0.001-0.001,0.003-0.002,0.004c-0.392,0.748-0.761,1.511-1.108,2.284 c-0.001,0.001-0.001,0.002-0.002,0.004C150.833,73.864,151.204,73.1,151.597,72.349z"/> <path d="M167.064,55.735c-0.001,0.001-0.003,0.002-0.004,0.002c-0.646,0.4-1.281,0.817-1.904,1.25 c-0.002,0.002-0.004,0.003-0.006,0.005C165.776,56.556,166.415,56.138,167.064,55.735z"/> <path d="M150.271,75.13c0,0.002-0.001,0.003-0.002,0.005c-0.311,0.716-0.605,1.441-0.878,2.177c0,0.002-0.001,0.005-0.002,0.007 C149.663,76.578,149.959,75.85,150.271,75.13z"/> <path d="M154.586,67.468c-0.001,0.002-0.002,0.004-0.003,0.006c-0.486,0.685-0.955,1.385-1.4,2.101 c-0.001,0.001-0.002,0.003-0.002,0.004C153.628,68.86,154.099,68.157,154.586,67.468z"/> <path d="M163.885,79.162c0.001-0.006,0.003-0.011,0.005-0.017c0.133-0.437,0.272-0.868,0.419-1.292 C164.012,78.283,163.892,78.72,163.885,79.162z"/> <path d="M266.33,66.089c0.248,0.322,0.492,0.646,0.732,0.976C266.822,66.735,266.578,66.411,266.33,66.089z"/> <path d="M265.193,64.676c0.262,0.312,0.522,0.626,0.774,0.945C265.715,65.302,265.455,64.987,265.193,64.676z"/> <path d="M264.682,64.065c-0.007-0.008-0.014-0.015-0.021-0.023c-0.232-0.266-0.472-0.523-0.709-0.782 c0.295,0.322,0.588,0.647,0.874,0.978C264.777,64.181,264.73,64.122,264.682,64.065z"/> <path d="M172.281,52.981c-0.001,0-0.002,0.001-0.003,0.001c-0.719,0.318-1.426,0.657-2.123,1.013c-0.001,0-0.002,0-0.002,0.001 C170.852,53.64,171.561,53.3,172.281,52.981z"/> <path d="M174.972,51.901L174.972,51.901c-0.812,0.294-1.614,0.607-2.402,0.949c-0.001,0-0.001,0-0.001,0 C173.356,52.509,174.159,52.195,174.972,51.901z"/> <path d="M262.328,61.571c-0.435-0.426-0.879-0.842-1.331-1.249l0,0C261.449,60.729,261.893,61.146,262.328,61.571z"/> <path d="M169.686,54.234c-0.001,0-0.001,0-0.002,0c-0.75,0.395-1.487,0.81-2.21,1.246c-0.001,0-0.002,0.001-0.002,0.001 C168.195,55.044,168.934,54.629,169.686,54.234z"/> <path d="M260.994,60.319c-0.452-0.406-0.912-0.802-1.382-1.189c-0.001-0.002-0.002-0.003-0.004-0.004 c-0.469-0.387-0.945-0.764-1.431-1.131c-0.001-0.001-0.003-0.002-0.005-0.003c-0.485-0.367-0.979-0.725-1.48-1.071 C258.198,57.963,259.636,59.099,260.994,60.319L260.994,60.319z"/> <path d="M94.754,120.355c-3.866,0-7,3.134-7,7v217.443c0,3.866,3.134,7,7,7c3.866,0,7-3.134,7-7V127.355 C101.754,123.489,98.62,120.355,94.754,120.355z"/> <path d="M327.191,120.355c-3.866,0-7,3.134-7,7v217.443c0,3.866,3.134,7,7,7c3.866,0,7-3.134,7-7V127.355 C334.191,123.489,331.058,120.355,327.191,120.355z"/> <path d="M239.883,261.497c-0.569-3.823-4.135-6.462-7.955-5.892l-99.06,14.756c-3.823,0.569-6.462,4.13-5.893,7.954l7.373,49.525 c0.273,1.837,1.266,3.489,2.758,4.595c1.213,0.898,2.675,1.375,4.166,1.375c0.344,0,0.689-0.025,1.031-0.076l99.064-14.756 c1.836-0.273,3.488-1.265,4.594-2.757c1.105-1.492,1.572-3.361,1.298-5.198L239.883,261.497z M141.854,283.177l34.437-5.13 l5.222,35.692l-34.347,5.116 M195.36,311.677l-5.222-35.692l36.928-5.5l5.315,35.679L195.36,311.677z"/> <path d="M307.658,171.386l-90.132-30.962c-1.755-0.603-3.678-0.484-5.347,0.331c-1.668,0.816-2.944,2.26-3.547,4.016 l-17.844,51.943c-0.604,1.756-0.484,3.68,0.331,5.348c0.815,1.668,2.26,2.944,4.016,3.547l90.137,30.955 c0.753,0.259,1.52,0.382,2.274,0.382c2.906,0,5.623-1.825,6.62-4.729l17.838-51.938 C313.26,176.623,311.314,172.641,307.658,171.386z M206.469,194.698l-0.165-0.058l4.231-12.317l9.064-26.385l0.03,0.011 l16.926,5.813l-0.424,1.131l-13.943,37.203L206.469,194.698z M283.199,221.049l-47.766-16.403l14.366-38.332l0.039,0.013 l46.651,16.025L283.199,221.049z"/> <path d="M380.107,85.556h-91.294c-3.266-28.222-27.297-50.209-56.379-50.209h-42.922c-29.084,0-53.115,21.987-56.38,50.209H41.839 C18.77,85.556,0,104.325,0,127.396v217.365c0,23.07,18.77,41.839,41.839,41.839h338.269c23.069,0,41.839-18.769,41.839-41.839 V127.396C421.946,104.325,403.177,85.556,380.107,85.556z M147.67,83.231c0.184-0.87,0.405-1.727,0.642-2.576 c0.054-0.19,0.106-0.38,0.162-0.569c0.244-0.831,0.507-1.654,0.8-2.464c0.037-0.104,0.08-0.206,0.118-0.311 c0.272-0.735,0.567-1.461,0.878-2.177c0.072-0.166,0.143-0.333,0.217-0.498c0.348-0.773,0.717-1.536,1.108-2.284 c0.077-0.146,0.158-0.29,0.236-0.437c0.36-0.668,0.736-1.325,1.13-1.972c0.074-0.123,0.145-0.248,0.222-0.37 c0.445-0.716,0.914-1.415,1.4-2.101c0.109-0.156,0.223-0.31,0.335-0.463c0.471-0.647,0.955-1.283,1.46-1.902 c0.043-0.052,0.083-0.106,0.127-0.159c0.54-0.655,1.104-1.288,1.682-1.91c0.134-0.145,0.269-0.287,0.404-0.43 c0.586-0.613,1.184-1.215,1.806-1.793c0.049-0.046,0.101-0.088,0.15-0.134c0.588-0.542,1.193-1.063,1.812-1.572 c0.145-0.121,0.291-0.242,0.439-0.361c0.655-0.525,1.325-1.035,2.012-1.523c0.114-0.082,0.232-0.158,0.348-0.239 c0.623-0.433,1.258-0.85,1.904-1.25c0.138-0.085,0.273-0.173,0.413-0.257c0.723-0.437,1.46-0.852,2.21-1.246 c0.156-0.082,0.314-0.159,0.472-0.239c0.697-0.355,1.404-0.695,2.123-1.013c0.098-0.043,0.192-0.09,0.291-0.132 c0.788-0.342,1.591-0.655,2.402-0.949c0.083-0.03,0.163-0.068,0.247-0.098c0.924-0.329,1.862-0.626,2.814-0.892 c0.608-0.171,1.223-0.327,1.843-0.47c1.239-0.287,2.499-0.519,3.776-0.695c1.916-0.263,3.872-0.4,5.86-0.4h42.922 c0.805,0,1.603,0.03,2.398,0.074c0.23,0.013,0.459,0.03,0.688,0.047c0.601,0.044,1.198,0.099,1.792,0.167 c0.211,0.024,0.423,0.045,0.632,0.072c0.781,0.101,1.558,0.218,2.325,0.361c0.061,0.011,0.121,0.025,0.182,0.038 c0.711,0.135,1.415,0.291,2.113,0.461c0.199,0.049,0.397,0.101,0.596,0.152c0.611,0.159,1.219,0.33,1.82,0.515 c0.148,0.046,0.297,0.089,0.444,0.136c0.755,0.241,1.501,0.5,2.237,0.781c0.049,0.02,0.097,0.041,0.146,0.06 c0.682,0.264,1.354,0.547,2.019,0.844c0.141,0.063,0.28,0.127,0.421,0.191c0.653,0.302,1.3,0.616,1.936,0.949 c0.05,0.025,0.1,0.05,0.149,0.075c0.726,0.384,1.439,0.787,2.141,1.21c0.011,0.007,0.02,0.014,0.031,0.02 c0.667,0.404,1.321,0.829,1.964,1.267c0.074,0.051,0.149,0.103,0.224,0.153c0.501,0.347,0.995,0.705,1.48,1.071 c0.002,0.001,0.004,0.002,0.005,0.003c0.485,0.367,0.962,0.744,1.431,1.131c0.002,0.001,0.003,0.002,0.004,0.004 c0.47,0.387,0.93,0.783,1.382,1.189c0.001,0.001,0.002,0.002,0.003,0.003c0.452,0.407,0.896,0.823,1.331,1.249 c0.021,0.021,0.041,0.04,0.061,0.061c0.391,0.384,0.773,0.774,1.148,1.173c0.01,0.01,0.02,0.02,0.028,0.029 c0.023,0.024,0.045,0.051,0.068,0.075c0.107,0.115,0.211,0.234,0.317,0.351c0.237,0.259,0.478,0.517,0.709,0.782 c0.007,0.008,0.014,0.016,0.021,0.023c0.049,0.057,0.096,0.115,0.145,0.172c0.124,0.145,0.245,0.292,0.367,0.438 c0.262,0.312,0.522,0.626,0.774,0.945c0.123,0.154,0.242,0.312,0.362,0.468c0.248,0.322,0.492,0.646,0.732,0.976 c0.052,0.071,0.103,0.144,0.153,0.215c1.092,1.522,2.088,3.116,2.976,4.777c0.05,0.093,0.102,0.185,0.151,0.278 c0.186,0.354,0.362,0.714,0.538,1.074c0.087,0.177,0.175,0.354,0.26,0.533c0.152,0.323,0.298,0.649,0.442,0.975 c0.098,0.224,0.196,0.446,0.291,0.671c0.128,0.304,0.251,0.609,0.372,0.917c0.101,0.257,0.199,0.515,0.296,0.773 c0.107,0.288,0.212,0.578,0.313,0.869c0.1,0.287,0.194,0.576,0.288,0.866c0.089,0.273,0.177,0.546,0.26,0.821 c0.097,0.321,0.186,0.646,0.275,0.971c0.069,0.252,0.141,0.502,0.205,0.756c0.096,0.376,0.183,0.756,0.268,1.136 c0.048,0.209,0.1,0.417,0.143,0.627c0.125,0.594,0.239,1.19,0.339,1.793h-15.253c-0.138-0.955-0.305-1.888-0.499-2.799 c-0.005-0.022-0.009-0.046-0.014-0.068c-0.191-0.894-0.412-1.764-0.657-2.612c-0.011-0.036-0.021-0.074-0.031-0.111 c-0.243-0.835-0.515-1.647-0.81-2.438c-0.017-0.044-0.031-0.09-0.048-0.135c-0.295-0.782-0.616-1.54-0.96-2.276 c-0.021-0.047-0.042-0.095-0.063-0.142c-0.345-0.731-0.716-1.438-1.107-2.123c-0.025-0.044-0.05-0.09-0.075-0.135 c-0.395-0.681-0.813-1.337-1.253-1.97c-0.028-0.041-0.056-0.084-0.085-0.125c-0.443-0.631-0.91-1.236-1.398-1.817 c-0.029-0.035-0.059-0.071-0.088-0.106c-0.493-0.581-1.009-1.136-1.545-1.664c-0.028-0.028-0.058-0.058-0.087-0.087 c-0.542-0.528-1.105-1.03-1.689-1.505c-0.027-0.022-0.054-0.045-0.081-0.066c-0.591-0.476-1.202-0.922-1.834-1.34 c-0.024-0.017-0.049-0.033-0.074-0.05c-0.639-0.419-1.297-0.809-1.977-1.167c-0.02-0.011-0.04-0.021-0.06-0.032 c-0.686-0.36-1.392-0.69-2.117-0.988c-0.017-0.006-0.032-0.013-0.049-0.02c-0.731-0.298-1.482-0.564-2.252-0.799 c-0.012-0.003-0.023-0.007-0.035-0.01c-0.776-0.234-1.571-0.436-2.385-0.602c-0.007-0.001-0.014-0.003-0.02-0.004 c-0.819-0.167-1.656-0.3-2.513-0.396c-0.002-0.001-0.005-0.001-0.008-0.001c-0.859-0.097-1.736-0.158-2.632-0.183l0,0 c-0.293-0.008-0.586-0.019-0.883-0.019h-42.148c-0.7,0-1.386,0.03-2.064,0.073c-0.122,0.008-0.246,0.014-0.367,0.023 c-0.65,0.05-1.29,0.119-1.92,0.209c-0.118,0.017-0.234,0.036-0.352,0.054c-0.65,0.1-1.292,0.215-1.919,0.357 c-0.008,0.002-0.016,0.004-0.023,0.006c-0.627,0.143-1.239,0.312-1.844,0.495c-0.097,0.029-0.194,0.057-0.29,0.087 c-0.588,0.187-1.163,0.393-1.727,0.616c-0.094,0.037-0.187,0.076-0.279,0.114c-1.173,0.483-2.295,1.048-3.363,1.692 c-0.063,0.037-0.125,0.073-0.187,0.111c-0.523,0.322-1.032,0.664-1.528,1.025c-0.063,0.046-0.124,0.091-0.187,0.137 c-1.026,0.761-1.994,1.6-2.898,2.518c-0.029,0.029-0.059,0.058-0.088,0.088c-0.447,0.458-0.878,0.938-1.295,1.434 c-0.035,0.043-0.071,0.086-0.107,0.129c-0.854,1.031-1.641,2.14-2.355,3.324c-0.006,0.011-0.014,0.021-0.02,0.032 c-0.355,0.59-0.691,1.199-1.011,1.826c-0.019,0.037-0.038,0.076-0.057,0.113c-0.646,1.28-1.219,2.633-1.711,4.059 c-0.147,0.425-0.287,0.855-0.42,1.293c-0.002,0.006-0.004,0.011-0.005,0.017c-0.569,1.876-1.012,3.862-1.313,5.955h-15.258 C147.419,84.484,147.537,83.855,147.67,83.231z M245.271,85.556H176.68c1.185-6.064,4.526-12.227,13.222-12.227h42.148 C240.745,73.328,244.087,79.491,245.271,85.556z M14,268.74l29.296-9.611l3.9,12.001l10.475,32.232L14,317.692V268.74z M407.946,344.761c0,15.351-12.488,27.839-27.839,27.839H51.839h-10C26.488,372.6,14,360.111,14,344.761v-12.334l10-3.281 l44.668-14.658c3.666-1.203,5.667-5.145,4.475-8.815L54.44,248.125c-0.574-1.769-1.83-3.236-3.488-4.079 c-1.658-0.842-3.584-0.989-5.351-0.409L24,250.725l-10,3.281v-126.61c0-15.352,12.488-27.84,27.839-27.84h338.269 c0.576,0,1.147,0.024,1.716,0.058c0.167,0.011,0.332,0.025,0.497,0.038c0.423,0.033,0.842,0.076,1.259,0.128 c0.16,0.021,0.32,0.039,0.479,0.062c1.117,0.159,2.213,0.386,3.283,0.674c0.139,0.037,0.275,0.078,0.413,0.117 c0.421,0.121,0.837,0.251,1.249,0.39c0.125,0.043,0.251,0.084,0.376,0.128c1.059,0.375,2.088,0.813,3.084,1.309 c0.092,0.045,0.182,0.093,0.273,0.14c0.428,0.219,0.85,0.448,1.264,0.689c0.076,0.044,0.152,0.087,0.228,0.131 c0.983,0.581,1.928,1.222,2.828,1.915c0.043,0.033,0.085,0.067,0.128,0.101c0.424,0.33,0.837,0.672,1.241,1.025 c0.029,0.026,0.059,0.051,0.088,0.076c0.875,0.774,1.701,1.602,2.475,2.478c0.01,0.013,0.021,0.024,0.031,0.037 c0.383,0.437,0.753,0.885,1.109,1.344c0.003,0.005,0.007,0.01,0.011,0.015c0.726,0.938,1.392,1.925,1.995,2.953 c0,0.001,0.001,0.002,0.002,0.004c2.417,4.123,3.81,8.916,3.81,14.031V344.761z"/> </g> </g> </g>
</svg>