<!DOCTYPE svg PUBLIC "-//W3C//DTD SVG 1.1//EN" "http://www.w3.org/Graphics/SVG/1.1/DTD/svg11.dtd">
<!-- Uploaded to: SVG Repo, www.svgrepo.com, Transformed by: SVG Repo Mixer Tools -->
<svg fill="#ffffff" width="800px" height="800px" viewBox="0 0 24 24" xmlns="http://www.w3.org/2000/svg" stroke="#ffffff">
<g id="SVGRepo_bgCarrier" stroke-width="0"/>
<g id="SVGRepo_tracerCarrier" stroke-linecap="round" stroke-linejoin="round"/>
<g id="SVGRepo_iconCarrier"> <title/> <g data-name="Layer 2" id="Layer_2"> <path d="M17,2H14.62l-.29.46a2.75,2.75,0,0,1-4.65,0L9.38,2H7A5,5,0,0,0,2,7v5H6V22H18V12h4V7A5,5,0,0,0,17,2Zm3,8H18V7H16V20H8V7H6v3H4V7A3,3,0,0,1,7,4H8.32a4.75,4.75,0,0,0,7.36,0H17a3,3,0,0,1,3,3Z"/> </g> </g>
</svg>