<!DOCTYPE svg PUBLIC "-//W3C//DTD SVG 1.1//EN" "http://www.w3.org/Graphics/SVG/1.1/DTD/svg11.dtd">
<!-- Uploaded to: SVG Repo, www.svgrepo.com, Transformed by: SVG Repo Mixer Tools -->
<svg fill="#ffffff" height="800px" width="800px" version="1.1" id="Capa_1" xmlns="http://www.w3.org/2000/svg" xmlns:xlink="http://www.w3.org/1999/xlink" viewBox="0 0 297 297" xml:space="preserve" stroke="#ffffff">
<g id="SVGRepo_bgCarrier" stroke-width="0"/>
<g id="SVGRepo_tracerCarrier" stroke-linecap="round" stroke-linejoin="round"/>
<g id="SVGRepo_iconCarrier"> <path d="M295.896,109.313l-17.255-34.511c-1.772-3.544-5.393-5.781-9.354-5.781h-93.074V10.458C176.213,4.683,171.531,0,165.755,0 h-34.51c-5.775,0-10.458,4.683-10.458,10.458v6.797H27.713c-3.962,0-7.582,2.238-9.354,5.782L1.104,57.547 c-1.472,2.943-1.472,6.41,0,9.353l17.256,34.51c1.771,3.544,5.392,5.781,9.354,5.781h93.074v13.596H27.713 c-3.962,0-7.582,2.237-9.354,5.781L1.104,161.079c-1.472,2.943-1.472,6.409,0,9.352l17.256,34.511 c1.771,3.544,5.392,5.781,9.354,5.781h93.074v75.818c0,5.775,4.683,10.458,10.458,10.458h34.51c5.775,0,10.458-4.683,10.458-10.458 V158.958h93.074c3.961,0,7.582-2.237,9.354-5.781l17.255-34.511C297.368,115.723,297.368,112.256,295.896,109.313z M34.177,86.276 L22.151,62.224l12.026-24.053h86.61v48.105H34.177z M34.177,189.809l-12.026-24.054l12.026-24.053h86.61v48.106H34.177z M155.298,276.084h-13.596V20.916h13.596V276.084z M262.824,138.042h-86.61V89.937h86.61l12.026,24.053L262.824,138.042z"/> </g>
</svg>